<svg width="100px" height="100px" viewBox="0 0 1034 914" version="1.1" xmlns="http://www.w3.org/2000/svg" xmlns:xlink="http://www.w3.org/1999/xlink" xml:space="preserve" style="fill-rule:evenodd;clip-rule:evenodd;stroke-linejoin:round;stroke-miterlimit:1.41421;">
    <g id="Artboard1" transform="matrix(1,0,0,1,195.798,199.001)">
        <rect x="-195.798" y="-199.001" width="1033.15" height="913.661" style="fill:none;"/>
        <g id="One-Money" transform="matrix(1,0,0,1,-195.798,-199.001)">
            <rect x="260.573" y="276.52" width="512" height="243.865" style="fill:rgb(149,213,167);"/>
            <g transform="matrix(1,0,0,1,260.549,200.58)">
                <rect x="153.453" y="75.939" width="205.574" height="243.865" style="fill:rgb(237,237,237);"/>
            </g>
            <g transform="matrix(1,0,0,1,619.364,198.448)">
                <circle cx="76.723" cy="200.184" r="25.423" style="fill:rgb(237,237,237);"/>
            </g>
            <g transform="matrix(1,0,0,1,260.168,198.448)">
                <circle cx="76.723" cy="200.184" r="25.423" style="fill:rgb(237,237,237);"/>
            </g>
            <g transform="matrix(1,0,0,1,238.477,244.001)">
                <path d="M293.097,176.321C293.139,172.53 291.753,169.28 288.941,166.571C286.128,163.863 281.659,161.509 275.534,159.509C271.659,158.301 268.159,156.905 265.034,155.321C261.909,153.738 259.232,151.853 257.003,149.665C254.774,147.478 253.055,144.967 251.847,142.134C250.639,139.301 250.034,136.03 250.034,132.321C250.034,128.821 250.566,125.655 251.628,122.821C252.691,119.988 254.191,117.519 256.128,115.415C258.066,113.311 260.42,111.613 263.191,110.321C265.961,109.03 269.034,108.176 272.409,107.759L272.409,94.009L281.722,94.009L281.722,107.759C288.722,108.717 294.159,111.665 298.034,116.603C301.909,121.54 303.868,128.259 303.909,136.759L292.409,136.759C292.409,133.967 292.066,131.394 291.378,129.04C290.691,126.686 289.691,124.665 288.378,122.978C287.066,121.29 285.451,119.967 283.534,119.009C281.618,118.051 279.43,117.571 276.972,117.571C271.93,117.571 268.118,118.884 265.534,121.509C262.951,124.134 261.639,127.676 261.597,132.134C261.597,134.217 261.93,136.071 262.597,137.696C263.264,139.321 264.316,140.801 265.753,142.134C267.191,143.467 269.045,144.707 271.316,145.853C273.586,146.998 276.326,148.113 279.534,149.196C283.451,150.488 286.972,151.926 290.097,153.509C293.222,155.092 295.868,156.946 298.034,159.071C300.201,161.196 301.857,163.655 303.003,166.446C304.149,169.238 304.722,172.488 304.722,176.196C304.722,179.821 304.149,183.071 303.003,185.946C301.857,188.821 300.243,191.29 298.159,193.353C296.076,195.415 293.545,197.071 290.566,198.321C287.586,199.571 284.284,200.384 280.659,200.759L280.659,212.759L271.347,212.759L271.347,200.821C268.097,200.488 264.982,199.738 262.003,198.571C259.024,197.405 256.389,195.707 254.097,193.478C251.805,191.248 249.972,188.446 248.597,185.071C247.222,181.696 246.534,177.655 246.534,172.946L258.097,172.946C258.097,176.446 258.618,179.353 259.659,181.665C260.701,183.978 262.045,185.821 263.691,187.196C265.336,188.571 267.201,189.551 269.284,190.134C271.368,190.717 273.472,191.009 275.597,191.009C278.305,191.009 280.743,190.676 282.909,190.009C285.076,189.342 286.909,188.373 288.409,187.103C289.909,185.832 291.066,184.29 291.878,182.478C292.691,180.665 293.097,178.613 293.097,176.321Z" style="fill:rgb(149,213,167);fill-rule:nonzero;"/>
            </g>
            <g transform="matrix(1.02374,0,0,1.02374,253.421,315.803)">
                <ellipse cx="255.005" cy="137.687" rx="4.54" ry="4.488" style="fill:rgb(149,213,167);"/>
            </g>
            <g transform="matrix(1.02374,0,0,1.02374,254.496,197.053)">
                <ellipse cx="255.005" cy="137.687" rx="4.54" ry="4.488" style="fill:rgb(149,213,167);"/>
            </g>
            <g transform="matrix(1.26382,0,0,1.26711,214.35,206.274)">
                <ellipse cx="255.005" cy="137.687" rx="4.54" ry="4.488" style="fill:rgb(149,213,167);"/>
            </g>
            <g transform="matrix(1.27381,0,0,1.27712,165.966,240.941)">
                <ellipse cx="255.005" cy="137.687" rx="4.54" ry="4.488" style="fill:rgb(149,213,167);"/>
            </g>
        </g>
    </g>
</svg>
